<svg xmlns="http://www.w3.org/2000/svg" xmlns:xlink="http://www.w3.org/1999/xlink" viewBox="0 0 250 250"><defs><style>.cls-1,.cls-4{fill:none;}.cls-1{stroke:#575756;stroke-miterlimit:10;stroke-width:4px;}.cls-2{fill:#1a012b;}.cls-3{fill:url(#Blanc_Noir);}.cls-5{fill:#0083d4;}</style><linearGradient id="Blanc_Noir" y1="125" x2="250" y2="125" gradientUnits="userSpaceOnUse"><stop offset="0" stop-color="#fff"/><stop offset="1" stop-color="#1d1d1b"/></linearGradient></defs><title>pouce</title><g id="Layer_2" data-name="Layer 2"><g id="Pouces"><g id="Pouce_Droit" data-name="Pouce Droit"><path class="cls-1" d="M104.87,43A21,21,0,0,1,67.52,56.1a89,89,0,0,1,36.55-18.84A21.11,21.11,0,0,1,104.87,43Z"/><circle class="cls-2" cx="125.62" cy="126.02" r="114.38" transform="translate(-52.32 125.73) rotate(-45)"/><path class="cls-3" d="M217.63,41.07A125,125,0,1,0,250,125,124.66,124.66,0,0,0,217.63,41.07ZM125,240.7A113.68,113.68,0,0,1,80.75,22.31h0A113.68,113.68,0,1,1,125,240.7Z"/><ellipse class="cls-4" cx="125" cy="73.96" rx="9.47" ry="9.18"/><path class="cls-4" d="M183.39,55.82a21,21,0,0,1-36.73-18.68A88.87,88.87,0,0,1,183.39,55.82Z"/><path class="cls-4" d="M121.32,156.54V213.4a89.34,89.34,0,0,1-21.83-3.78,14.77,14.77,0,0,0,1.8-7.08,15.46,15.46,0,0,0-15.7-15.21,15.75,15.75,0,0,0-13.87,8.1A89.84,89.84,0,0,1,51,173.32a16.11,16.11,0,0,0-5.61-31.2,15.88,15.88,0,0,0-7,1.6,89.65,89.65,0,0,1-2.17-19.65c0-2,.07-4,.2-6a17.7,17.7,0,0,0,4.69.64,17.44,17.44,0,0,0,4.36-34.32,90.38,90.38,0,0,1,9.14-14.68A105,105,0,0,0,125,96.51a79.75,79.75,0,0,1-25,22.23C70.78,132.7,75,153.26,75,153.26s4.51,20.3,23.31,19.73C117.49,172.4,121.32,156.54,121.32,156.54Z"/><path class="cls-4" d="M104.87,43A21,21,0,0,1,67.52,56.1a89,89,0,0,1,36.55-18.84A21.11,21.11,0,0,1,104.87,43Z"/><ellipse class="cls-4" cx="125" cy="73.96" rx="9.47" ry="9.18"/><path class="cls-4" d="M183.39,55.82a21,21,0,0,1-36.73-18.68A88.87,88.87,0,0,1,183.39,55.82Z"/><path class="cls-4" d="M121.32,156.54V213.4a89.34,89.34,0,0,1-21.83-3.78,14.77,14.77,0,0,0,1.8-7.08,15.46,15.46,0,0,0-15.7-15.21,15.75,15.75,0,0,0-13.87,8.1A89.84,89.84,0,0,1,51,173.32a16.11,16.11,0,0,0-5.61-31.2,15.88,15.88,0,0,0-7,1.6,89.65,89.65,0,0,1-2.17-19.65c0-2,.07-4,.2-6a17.7,17.7,0,0,0,4.69.64,17.44,17.44,0,0,0,4.36-34.32,90.38,90.38,0,0,1,9.14-14.68A105,105,0,0,0,125,96.51a79.75,79.75,0,0,1-25,22.23C70.78,132.7,75,153.26,75,153.26s4.51,20.3,23.31,19.73C117.49,172.4,121.32,156.54,121.32,156.54Z"/><path class="cls-4" d="M104.87,43A21,21,0,0,1,67.52,56.1a89,89,0,0,1,36.55-18.84A21.11,21.11,0,0,1,104.87,43Z"/><path class="cls-4" d="M104.87,43A21,21,0,0,1,67.52,56.1a89,89,0,0,1,36.55-18.84A21.11,21.11,0,0,1,104.87,43Z"/><ellipse class="cls-4" cx="125" cy="73.96" rx="9.47" ry="9.18"/><path class="cls-4" d="M183.39,55.82a21,21,0,0,1-36.73-18.68A88.87,88.87,0,0,1,183.39,55.82Z"/><path class="cls-5" d="M121.32,156.54V213.4a89.34,89.34,0,0,1-21.83-3.78,14.77,14.77,0,0,0,1.8-7.08,15.46,15.46,0,0,0-15.7-15.21,15.75,15.75,0,0,0-13.87,8.1A89.84,89.84,0,0,1,51,173.32a16.11,16.11,0,0,0-5.61-31.2,15.88,15.88,0,0,0-7,1.6,89.65,89.65,0,0,1-2.17-19.65c0-2,.07-4,.2-6a17.7,17.7,0,0,0,4.69.64,17.44,17.44,0,0,0,4.36-34.32,90.38,90.38,0,0,1,9.14-14.68A105,105,0,0,0,125,96.51a79.75,79.75,0,0,1-25,22.23C70.78,132.7,75,153.26,75,153.26s4.51,20.3,23.31,19.73C117.49,172.4,121.32,156.54,121.32,156.54Z"/><path class="cls-4" d="M183.39,55.82a21,21,0,0,1-36.73-18.68A88.87,88.87,0,0,1,183.39,55.82Z"/><path class="cls-5" d="M104.87,43A21,21,0,0,1,67.52,56.1a89,89,0,0,1,36.55-18.84A21.11,21.11,0,0,1,104.87,43Z"/><ellipse class="cls-4" cx="125" cy="73.96" rx="9.47" ry="9.18"/><path class="cls-5" d="M183.39,55.82a21,21,0,0,1-36.73-18.68A88.87,88.87,0,0,1,183.39,55.82Z"/><ellipse class="cls-5" cx="125" cy="73.96" rx="9.47" ry="9.18"/><path class="cls-5" d="M129.3,156.54V213.4a89.42,89.42,0,0,0,21.83-3.78,14.67,14.67,0,0,1-1.81-7.08A15.46,15.46,0,0,1,165,187.33a15.76,15.76,0,0,1,13.88,8.1,89.61,89.61,0,0,0,20.75-22.11,16.11,16.11,0,0,1,5.62-31.2,15.94,15.94,0,0,1,7,1.6,89.65,89.65,0,0,0,2.16-19.65c0-2-.06-4-.2-6a17.64,17.64,0,0,1-4.69.64,17.44,17.44,0,0,1-4.36-34.32A89,89,0,0,0,196,69.74a105,105,0,0,1-70.41,26.77,79.78,79.78,0,0,0,25,22.23c29.19,14,24.94,34.52,24.94,34.52s-4.51,20.3-23.31,19.73C133.12,172.4,129.3,156.54,129.3,156.54Z"/></g></g></g></svg>