<svg xmlns="http://www.w3.org/2000/svg" viewBox="0 0 352.35 89.91"><defs><style>.cls-1{fill:#268cea}.cls-2{fill:#7fb1ff}</style></defs><g id="Layer_2" data-name="Layer 2"><g id="background"><g id="Logo"><path class="cls-1" d="M25.3 87.91H10.85l12.32-71.55H2L4.46 2h56L58 16.36H37.62z"/><path class="cls-2" d="M25.3 89.91H10.85a2 2 0 01-2-2.34L20.8 18.36H2A2 2 0 010 16L2.49 1.66A2 2 0 014.46 0h56a2 2 0 012 2.34L59.94 16.7a2 2 0 01-2 1.66H39.31l-12 69.89a2 2 0 01-2.01 1.66zm-12.08-4h10.39L35.65 16a2 2 0 012-1.66h18.63L58.06 4H6.15L4.37 14.36h18.8a2 2 0 012 2.34z"/><path class="cls-1" d="M47.58 87.91L62.86 2h14.46L62 87.91z"/><path class="cls-2" d="M62 89.91H47.58A2 2 0 0146 89.2a2 2 0 01-.43-1.64L60.89 1.65a2 2 0 012-1.65h14.43a2 2 0 011.54.72 2 2 0 01.43 1.63L64 88.26a2 2 0 01-2 1.65zm-12-4h10.4L74.94 4h-10.4z"/><path class="cls-1" d="M111.62 87.91H97.8l-2.51-71.79-11.16 71.79H71.06L85.75 2h20.67l2.16 60.19L132.37 2h20.83l-14.46 85.91H125.5l13.68-71.26z"/><path class="cls-2" d="M138.74 89.91H125.5a2 2 0 01-2-2.37l9.5-49.43-19.52 50.52a2 2 0 01-1.86 1.28H97.8a2 2 0 01-2-1.93L94 37.26l-7.93 51a2 2 0 01-2 1.69H71.06a2 2 0 01-1.53-.71 2 2 0 01-.44-1.62L83.78 1.66a2 2 0 012-1.66h20.67a2 2 0 012 1.93l1.83 50.63 20.27-51.3A2 2 0 01132.37 0h20.83a2 2 0 011.53.71 2 2 0 01.44 1.62l-14.46 85.92a2 2 0 01-1.97 1.66zm-10.82-4h9.13L150.84 4h-17.11l-23.29 58.92a2 2 0 01-3.86-.66L104.49 4h-17l-14 81.91h9l10.83-70.09a2 2 0 014 .23l2.44 69.86h10.52l27.07-70a2 2 0 013.83 1.1z"/><path class="cls-1" d="M147.28 87.91L162 2h49.3l-2.46 14.36H174L170.48 37h34.06l-2.46 14.35H168l-6.29 36.57z"/><path class="cls-2" d="M161.73 89.91h-14.45a2 2 0 01-1.53-.71 2 2 0 01-.44-1.62L160 1.66A2 2 0 01162 0h49.3a2 2 0 012 2.34l-2.51 14.36a2 2 0 01-2 1.66h-33.08L172.86 35h31.68a2 2 0 011.53.71 2 2 0 01.44 1.62l-2.46 14.36a2 2 0 01-2 1.66H169.7l-6 34.91a2 2 0 01-1.97 1.65zm-12.08-4h10.4L166 51a2 2 0 012-1.67h32.37l1.8-10.33h-31.69a2 2 0 01-2-2.34L172.06 16a2 2 0 012-1.66h33.1L208.91 4h-45.24z"/><path class="cls-1" d="M201.65 87.91L216.38 2h14.51l-12.33 71.56h36l-2.46 14.35z"/><path class="cls-2" d="M252.07 89.91h-50.42a2 2 0 01-1.53-.71 2 2 0 01-.44-1.62l14.73-85.92a2 2 0 012-1.66h14.51a2 2 0 012 2.34l-11.99 69.22h33.6a2 2 0 011.53.71 2 2 0 01.44 1.62L254 88.25a2 2 0 01-1.93 1.66zm-48-4h46.36l1.78-10.35h-33.6a2 2 0 01-1.53-.72 2 2 0 01-.44-1.62L228.52 4h-10.45z"/><path class="cls-1" d="M254.14 87.91L269.43 2h14.46L268.6 87.91z"/><path class="cls-2" d="M268.6 89.91h-14.46a2 2 0 01-1.53-.71 2 2 0 01-.44-1.64l15.29-85.91a2 2 0 012-1.65h14.46a2 2 0 011.53.72 2 2 0 01.44 1.63l-15.32 85.91a2 2 0 01-1.97 1.65zm-12.07-4h10.4L281.5 4h-10.4z"/><path class="cls-1" d="M289.05 87.91H270.3l31.13-43.17L283.89 2h15.18l6.87 15.74q3.75 8.51 5.42 13.22 5.82-8.46 9.83-13.93L332.25 2h18.1l-32.16 45.07 17.33 40.84h-16.39l-5.32-12.5q-4.35-10-5.66-14.27-1.69 3.21-9.53 13.77z"/><path class="cls-2" d="M335.52 89.91h-16.39a2 2 0 01-1.84-1.21L312 76.2c-1.86-4.28-3.29-7.74-4.33-10.46-1.68 2.51-4.14 5.94-7.41 10.36l-9.57 13a2 2 0 01-1.61.81H270.3a2 2 0 01-1.62-3.17l30.47-42.27L282 2.76A2 2 0 01283.89 0h15.18a2 2 0 011.83 1.2l6.88 15.74c1.67 3.79 3 7 4.1 9.74 2.95-4.24 5.53-7.88 7.7-10.83l11.05-15a2 2 0 011.62-.85h18.1A2 2 0 01352 3.16l-31.53 44.16 16.89 39.81a2 2 0 01-1.84 2.78zm-15.07-4h12.05l-16.15-38.06a2 2 0 01.22-1.94L346.47 4h-13.21L322.8 18.22c-2.66 3.62-6 8.29-9.79 13.88a2 2 0 01-1.91.85 2 2 0 01-1.62-1.32c-1.09-3.07-2.9-7.47-5.37-13.08L297.76 4h-10.88l16.4 40a2 2 0 01-.23 1.93l-28.84 40H288l9-12.19c5.14-6.94 8.29-11.48 9.38-13.52a2 2 0 011.95-1.05 2 2 0 011.72 1.41c.86 2.77 2.73 7.5 5.59 14z"/></g></g></g></svg>